/* XPM */
static char *_7becf91eed14349e14146206d828474QrklsYL0Q1ExwbiE[] = {
/* columns rows colors chars-per-pixel */
"64 64 168 2 ",
"   c None",
".  c #480042",
"X  c #545054",
"o  c #5A575C",
"O  c #715C6E",
"+  c #6E6C70",
"@  c #736E71",
"#  c #767176",
"$  c #7A7579",
"%  c #7D7A7E",
"&  c #FE016D",
"*  c #FC0C6C",
"=  c #F81167",
"-  c #F5156C",
";  c #FB146D",
":  c #F71A6D",
">  c #FA196E",
",  c #FF0174",
"<  c #FF0F72",
"1  c #FD1572",
"2  c #FB1D73",
"3  c #FE177A",
"4  c #F1216D",
"5  c #EB2A70",
"6  c #FB2374",
"7  c #FB2976",
"8  c #FE257B",
"9  c #FE2D7A",
"0  c #FB357E",
"q  c #FB3C7F",
"w  c #7E7C80",
"e  c #F93381",
"r  c #FC3E82",
"t  c #FC3D8E",
"y  c #FA378C",
"u  c #827E81",
"i  c #A07B8B",
"p  c #D74D88",
"a  c #FB4082",
"s  c #F54F87",
"d  c #F7478B",
"f  c #EC5389",
"g  c #F3548A",
"h  c #FC4B97",
"j  c #FC4E9C",
"k  c #FC519B",
"l  c #F3589E",
"z  c #F55A91",
"x  c #E46B9E",
"c  c #F76796",
"v  c #F1619F",
"b  c #FD699A",
"n  c #F75FA2",
"m  c #FA5DA3",
"M  c #FF5EA9",
"N  c #DE74A2",
"B  c #ED69A0",
"V  c #F265A3",
"C  c #FC6CAB",
"Z  c #EF79AE",
"A  c #E472A3",
"S  c #FB71AD",
"D  c #FD74B1",
"F  c #FF7BBA",
"G  c #FF7DC0",
"H  c #7F8A89",
"J  c #858184",
"K  c #888387",
"L  c #8B858A",
"P  c #8D898D",
"I  c #938187",
"U  c #92878C",
"Y  c #9F808C",
"T  c #918A8F",
"R  c #9E8690",
"E  c #938D92",
"W  c #9A8D93",
"Q  c #8F9698",
"!  c #899594",
"~  c #969195",
"^  c #999296",
"/  c #9D959A",
"(  c #9E999C",
")  c #A48B97",
"_  c #A0969C",
"`  c #A2999E",
"'  c #A59CA1",
"]  c #A99FA5",
"[  c #A7A2A6",
"{  c #AAA1A6",
"}  c #AEA5AA",
"|  c #AEA9AD",
" . c #B0A6AC",
".. c #B2A9AE",
"X. c #B6ACB2",
"o. c #B9AEB4",
"O. c #B6B2B5",
"+. c #BAB1B6",
"@. c #BEB5BA",
"#. c #BEBABD",
"$. c #C48799",
"%. c #F387B8",
"&. c #FC84BA",
"*. c #FC8ABE",
"=. c #C0AFB3",
"-. c #C0B7BC",
";. c #C8B6BD",
":. c #C2B9BE",
">. c #CDB9BF",
",. c #C5B1B4",
"<. c #FF82C4",
"1. c #FF8CC3",
"2. c #FF83CA",
"3. c #FD92C4",
"4. c #FF9DCB",
"5. c #C5BDC1",
"6. c #C9BEC3",
"7. c #D6BCC5",
"8. c #F6A5CA",
"9. c #E0B3C4",
"0. c #C5C2C5",
"q. c #C9C1C6",
"w. c #C2C7C8",
"e. c #CCC5C9",
"r. c #CDC9CC",
"t. c #D5C1C6",
"y. c #D0CBCF",
"u. c #D9C5C9",
"i. c #D3CDD1",
"p. c #D6D2D5",
"a. c #D9D3D6",
"s. c #D9D3D7",
"d. c #DBD5DA",
"f. c #DDD9DC",
"g. c #E5C8CF",
"h. c #E2C8D0",
"j. c #EACED2",
"k. c #F0CFD5",
"l. c #E1DBDE",
"z. c #F0D1D7",
"x. c #F2D2D9",
"c. c #FAD8DE",
"v. c #E2DEE1",
"b. c #FDDBE1",
"n. c #E6E5E6",
"m. c #E6E2E5",
"M. c #E9E5E6",
"N. c #EAE6E9",
"B. c #EBEAEB",
"V. c #ECE9EB",
"C. c #EDEBED",
"Z. c #EEEDEE",
"A. c #EDEBEC",
"S. c #FFE4EB",
"D. c #F1EDEF",
"F. c #F1EFF0",
"G. c #F3F2F3",
"H. c #F5F3F6",
"J. c #F5F5F5",
"K. c #F3F2F3",
"L. c #F8F5F7",
"P. c #F7F7F8",
"I. c #F8F7F9",
"U. c #FBFAFB",
"Y. c white",
"T. c #FFFEFF",
"R. c #FEFDFE",
"E. c #FEFDFE",
/* pixels */
"                                                                                                                                ",
"                                                            5 1 , &                                                             ",
"                                                          = , 3 9 0 *         * , , *                                           ",
"                                                          , d Z m j e 1     1 2 7 6 2 4                                         ",
"                                                          3 S 8.S j k 7   > 1 q a a 9 , >                                       ",
"                                                          8 k C C j h 2 ; * e r q a 9 , *                                       ",
"                                                          - 7 j h t t 6 ; & q q q a 9 , ;                                       ",
"                                                            8 h t t t t t 2 0 a a r 7 &                                         ",
"                                                            : 2 t t t t t r r a r 7 1                                           ",
"                                                              * 2 y d t t a q r 2 &                                             ",
"                                                                > 1 y t t a q 6 1                                               ",
"                                                                  ; 1 * y r 2 1                                                 ",
"                                                                    ; & 2 6 <                                                   ",
"                                                                      ; * *                                                     ",
"                                                                        2                         $ $ #                         ",
"                                                    # # # # #                                   / n.F.d.P                       ",
"        # @                                       #.B.n.n.n.C.e.                              } G.E.E.E.P                       ",
"      0.B.B.0.                                  ( o.p.E.E.E.E.J.J                           ' F.E.E.E.U.P                       ",
"    X n.E.E.Z.@                                 X.] ` e.5.p.K.#.                          [ m.U.J.U.E.e.                        ",
"    O.Z.E.E.m.@           E                   /  .o.| T L } 5.                            #.N.Z.Z.V.w.                          ",
"  o Z.E.J.E.m.#         L ' P               u } o.o.o.X..._                             / { q.s.a.i.$                           ",
"  | B.J.B.H.s.+         E ( L               P / '  .{  .{ J                             X.5.+.X...`                             ",
"# Z.E.l.a.f.r.E       E / [ P             u ` ` / ^ ` { { L                             { 5.+.o.o.J                             ",
"% p.v.5.X.+.:.@.J     P { -.T             ~ ] ' ] ` / / / L                           P ] o. .|  .K                             ",
"  ( ..X.+.-.:.X.J     T @.@.P           u X.@.X.o. ._ ' [ K                           ' ' ( _ ' ' K                             ",
"  u ..o.o.@.:.o.K     P @.o.E           u } X.X.o...}  .' K                           { o. . . .| L                             ",
"  J  .o.+.@.@. ./ P   E X.' / P       P _ _ / ] X.} X.X.J     _                       { @.o.o.o.X.u                             ",
"  J ..o.o.@. ./ [ [ J L / / ' L     L { +.[ ( ' _ ' } ] T  .} }       _     g s c $.Q P % ~ | X.o.T                             ",
"  J  .o.{ _ _ ` o.X.L L / ' +.E   T +.-.@.@.@.@.o._ L L 5.E.E.Z.[   } {   f b z x.K.K.5.O L ~ ` X.[ J                           ",
"  J ^ ` ( ] | ..@.@.| L +.@.@.( E #.e.-.@.@.@.@.-.+.] 5.E.E.E.E.Z.} K.B.( I l.D.U.E.E.U.P.P.E.d.L ~ E E E               b.{ J   ",
"    J } o.o.@.@.@.:...P +.@.( T :.e.6.0.6.6.5.6.o._ 5.R.E.E.E.E.E.E.E.n.( d.K.U.E.E.E.E.E.E.E.E.K.B.n.M.f.E P       b.c.7._ (   ",
"    w | o.o.@.@.-.X.' [ E / T @.q.6.q.6.6.e.o./ e.C.N.F.D.K.E.E.E.E.n.[ f.K.P.E.s.B.E.E.E.E.E.U.D.K.D.V.M.M.f.~ h.b.S.,.~ ( /   ",
"    u | o.o.-.+.{ _ ' { u P #.q.q.6.q. ._ _ y.V.B.P.f.L P | J.F.K.F.M.T v.E.E.i.@.M.E.E.E.E.E.U.A.Z.M.M.M.l.f.s. .W ' _ / _ /   ",
"    u ..-. .] ' ' [ } +. .T 5.q.0.q.q.:.:._ p.P.J.e.O.n.n.p.O.K.Z.M.X.p.J.E.n.W p.E.E.E.E.E.U.K.Z.n.M.M.a... .-.{ J E _ _ /     ",
"      E ' _ _ ] [ ..@.:.@.P 5.6.6.q.q.q.e.5.X.l.p.#.Z.E.E.B.~ G.Z.m.E m.E.E.| . m.E.E.E.U.K.K.A.M.M.M.M.y.' ^ _  .{ E ^ ` ~     ",
"      % '  .[ X.+.+.@.@.+.P 0.q.6.q.q.6.6.6.X.+.~ w.E.U.E.n.( K.Z.M.E m.H.R.u #.U.E.U.K.K.D.Z.M.M.d.l.l.a.r.{ _ ' ' ' E / ^     ",
"      J ] +...o.-.-.-.@.[ W ' #.q.6.q.q.5.@.-.@.L w.E.U.E.n.( G.n.o.i.D.F.H.p.F.P.J.F.D.V.V.N.M.M.y.-.-.0.0.} [ _ /  .' T T     ",
"      w } @.X.+.-.+.{ [ _ ' J X.:.5.:.:.@.@.-.} O.B.E.U.U.f.( J.m.u N.F.D.D.F.M.N.V.V.V.N.M.m.l.l.y.` ` ..=.o. .{ _ _ ] ` ~     ",
"        E {  .] } ' _ ' [ o.} @.@.@.@.@.@.@.-.E 5.U.J.K.F.a.( J.m.P M.F.F.A.M.v.l.l.l.l.l.v.a.5.0.+.^ ` ..X.-.O...{ ( '  .^     ",
"          / ' ^ / ' ]  .X.@.-.@.@.@.@.@.@.@.@.~ ..m.D.M.a.0.( G.f.L v.F.D.N.v.i.e.e.e.e.e.e.:.o.@.{ ` ` [  .X.-. . .' ' { /     ",
"          / [ ' ] ..X.X.@.+.@.@.@.@.@.@.@.@.@./ ( e.f.r.+.} ' K.d.P f.D.M.v.i.-.o.@.@.o.;.t.u.6.{ X.{ / _  .} @.o. .` / ] /     ",
"          } +. ...o.@.@.X.| @.@.@.+.@.@.@.@.+.~ ' -.X.+.5.| ' P.f.L d.B.m.i.-.-.-.-.@.-.j.b.c.=.P :...' _ [  .@.@...' / ] _     ",
"          ^ ..o.X.@.@.@.} ..@.@.@.| +.-.@.o.o./ ' 5.:.@.X.[ ( d.d./ q.l.i.@.@.@.@.+.-.j.b.k.6.^ E #.@.{ / _  .@.@.X.} _ ' /     ",
"            _ o.X.o.@.+.| [ @.@.+...+.@.@.o.o.^ / O... ./ ' W ~ M.O.X.i.:.@.@.@.-.6.z.x.g.6.[ _ P @.@...` _  .+.@.:. ._ _ E     ",
"            [ +.X.o.o.] ] ] @.+. .{ @.@.o. .X.( T ` _ ' o... .[ y.X.o.p.;.@.@.-.| 6.k.;.] } X.( P +.@.@. ._ { { +.-. ._ _ _     ",
"            / ..X.{ ] / ] @.@.| | X.+.-.o...X./ / O...O.-.-.-.X.K o.o.e.:.@.@.:./ / } { | | } ( ^ o.@.@.{ / _ } +.o.{ ` / T     ",
"              '  ./ / ` @.@.@. .{ @.@.@.o.} | / ' @.@.@.+.+.+.{ E ..X...+.@.@.@... . . .{ X.^ ^ o.X.X.@. ._ _ { X.X.} ' E       ",
"              T ` _ / ` X.@.@. ._ +.@.@.o.` ' X.( ` @.@.X._ _ '  .L ..o.X.@.@.@... . .}  . ./ ^ o.X.X.X.] _ _ ] ..o.{ ' ~       ",
"                E ( ' X.o.X. .} _ +.-.-.X.` ' +._ T ` ` '  . . ...L | o.X.X.@.@.@.o. . . .( / o.X.X.X.X.] _ _ ] X.X. ._ T       ",
"                  ~ X.o.X. .{ ` _ +.-... .` { +._ ^ | } ..-.+.X.X...E  .X.X.X.@.@.@.+.+.o.X.X.o.X.X.X.X.] _ ] ] X.X. ._         ",
"                    ^ X. . .` _ ..o.o...' / { o.O.` ^ -.-.+.X.X.X.o.B i | X.X.X.X.X.o.o.o.X.X.X.X.X...{ ] _ _ ] X.} ] E         ",
"                      T T { _ _ ..X. . .` _ _ { o.....o.o.X.X.X.X.X.V i } o.X.X.X.o.X.o.X.X.X.X.X.X.X.{ ] _ ] X.X.} W           ",
"                          T L / ..o. .' / _ / _ { o.o.X.X.X.X.X...` n %.) } o.X.X.X.o.X.X.X.X.X.X.X.X.] ' ] { X.o.^             ",
"                              P ^ E } ' / _ _ _ ` ` ` ` ` ` ` ' _ U V &.Z R H  .o.o.o.X.X.X.X.X.X.X.] ] _ ] { W E               ",
"                                    E / E E E E E E E E W E T ^ P   m 1.D A N ) Q L ' -.o.+.o.o.=.o.] ' ] / E                   ",
"                                                                    m 1.<.D S B p 7.w.R ` ( ` ( _ _ ^ _ E                       ",
"                                                                    m 1.1.D C C M 4.9.                                          ",
"                                                                    V 1.3.&.&.D C C j                                           ",
"                                                                      S 3.3.3.*.&.*.2.l                                         ",
"                                                                        S G F F F <.S                                           ",
"                                                                          k k k k k                                             ",
"                                                                                                                                ",
"                                                                                                                                ",
"                                                                                                                                "
};
